<svg width="104" height="72" viewBox="0 0 104 72" fill="none" xmlns="http://www.w3.org/2000/svg">
<path d="M65.0201 42.7647C65.9184 42.7647 66.6442 42.0389 66.6442 41.1406V38.5224L69.3791 39.4339C70.2383 39.7195 71.1512 39.2584 71.4339 38.4072C71.7181 37.5559 71.2585 36.6351 70.4072 36.3524L65.5348 34.7282C65.0395 34.5578 64.4936 34.6456 64.0716 34.9508C63.646 35.2561 63.3958 35.7469 63.3958 36.2683V41.1407C63.3958 42.0391 64.1216 42.7649 65.02 42.7649L65.0201 42.7647Z" fill="#F5E9FF"/>
<path d="M98.1176 56.1106C102.867 43.1463 97.3607 32.8044 92.8782 24.4219C87.8578 15.0424 85.3469 9.43901 92.0937 3.36726C92.7593 2.76762 92.8129 1.74021 92.214 1.07395C91.6144 0.406153 90.587 0.35251 89.9207 0.953589C80.9537 9.02426 85.3536 17.2473 90.0135 25.9545C94.5075 34.3544 99.5606 43.8557 94.7265 55.8761C91.3919 56.3554 88.7107 58.8403 87.9732 62.0856L87.486 61.3547C87.367 61.1778 87.2133 61.0234 87.0364 60.9052L75.1815 53.0019L76.905 52.4269C77.3125 52.2921 77.6504 51.9984 77.844 51.6134C77.9136 51.472 79.5182 48.2077 79.6335 43.3172L84.1854 37.2425C84.5559 36.7502 84.6139 36.0911 84.3384 35.54C84.0636 34.9911 83.5016 34.6438 82.8861 34.6438H82.8832L77.158 34.6533C72.9758 30.1368 65.6242 29.7713 63.396 29.7713C58.0393 29.7713 53.7846 33.5381 51.8515 35.6053C49.3065 33.6236 43.1964 29.7713 34.1612 29.7713C23.8217 29.7713 17.3823 32.37 15.8923 33.0391C15.2086 33.0681 13.4191 33.0196 11.9574 32.2285C10.5051 31.4411 9.79884 30.1054 9.79884 28.1471C9.79884 11.1421 4.38696 10.2814 3.30221 10.2814C2.49303 10.2814 1.80784 10.8759 1.694 11.675C1.62801 12.1441 0.053894 23.2355 0.053894 29.7712C0.053894 39.0304 7.06023 43.0502 11.6311 44.1437L13.0036 52.3797C12.5548 53.7421 11.423 57.3573 11.423 59.0061C11.423 66.2322 18.2786 71.4555 18.5693 71.6745C18.8506 71.8855 19.1914 71.9994 19.5438 71.9994H32.537C32.5501 72.0008 32.5631 71.9994 32.5682 71.9994C33.4666 71.9994 34.1924 71.2736 34.1924 70.3752C34.1924 70.07 34.1083 69.7843 33.9618 69.5385C33.4615 68.2167 31.5248 63.8786 27.6645 63.8786H25.4197L24.9716 62.9803L29.1784 60.8768C30.6597 61.8397 32.0091 62.6243 33.3476 63.2776C35.1631 68.2182 39.4882 71.5282 39.6803 71.6731C39.9609 71.8856 40.3053 71.9994 40.6577 71.9994H50.4026C50.924 71.9994 51.4148 71.7492 51.7201 71.3251C52.0253 70.9009 52.108 70.3557 51.9427 69.8619C51.7933 69.4138 50.7217 66.4185 48.4718 64.8452C52.045 63.8917 55.1439 62.1196 56.7355 61.0887C58.8774 63.0289 63.908 67.127 68.2685 67.127C70.2762 67.127 71.3661 66.581 72.2426 66.1445C72.9865 65.7711 73.5245 65.5028 74.7652 65.5028C75.6179 65.5028 77.3326 66.6919 78.7118 67.6484C80.7326 69.0514 82.6409 70.3753 84.5101 70.3753C86.9673 70.3753 88.6583 69.5973 89.6146 68.9817C91.1039 70.8074 93.3437 71.9995 95.8792 71.9995C100.357 71.9995 104 68.3568 104 63.8787C104 60.1838 101.502 57.0899 98.1176 56.1102L98.1176 56.1106ZM41.235 68.7516C40.5353 68.152 39.054 66.762 37.8098 64.8928C39.4535 65.2713 41.2662 65.4598 43.3776 65.4873C43.7742 66.5024 44.5406 67.1274 45.5296 67.1274C46.4048 67.1274 47.185 67.8873 47.7773 68.7516H41.235ZM84.51 67.1274C83.6573 67.1274 81.9425 65.9383 80.5634 64.9819C78.5425 63.5789 76.6342 62.255 74.765 62.255C72.7574 62.255 71.6674 62.8009 70.7909 63.2374C70.047 63.6108 69.509 63.8791 68.2684 63.8791C64.833 63.8791 59.7257 59.5316 58.0479 57.858C57.4744 57.2867 56.5716 57.2243 55.9248 57.705C55.8646 57.7507 49.7675 62.2549 43.906 62.2549C40.2937 62.2549 37.8125 61.73 35.4249 60.6743C35.4119 60.6677 35.3974 60.6648 35.3843 60.6561C33.7261 59.9187 32.1086 58.9312 30.19 57.6528C29.7057 57.3309 29.0857 57.2903 28.563 57.5521L22.0663 60.8004C21.2637 61.2013 20.9388 62.178 21.3405 62.9799L22.9647 66.2282C23.2388 66.78 23.8007 67.1273 24.4163 67.1273H27.6646C28.5397 67.1273 29.3199 67.8872 29.9122 68.7515H20.1216C18.8034 67.6276 14.6713 63.726 14.6713 59.0065C14.6713 58.0349 15.5711 54.9266 16.2092 53.0283C16.2955 52.7767 16.3165 52.5055 16.2723 52.2438L14.6481 42.4988C14.5328 41.7992 13.9774 41.2561 13.2756 41.1575C12.8703 41.1002 3.30231 39.6188 3.30231 29.7716C3.30231 25.4727 4.04261 18.8883 4.51898 15.0991C5.46593 16.8646 6.55057 20.5451 6.55057 28.1475C6.55057 32.1542 8.65028 34.1307 10.4109 35.0857C13.2176 36.604 16.4477 36.2618 16.4477 36.2618C16.6442 36.2422 16.8458 36.1871 17.0213 36.0979C17.0829 36.0653 23.3003 33.02 34.1612 33.02C44.6661 33.02 50.8219 38.9837 50.8784 39.0411C51.2112 39.3739 51.697 39.5399 52.1385 39.5124C52.6076 39.4783 53.0413 39.2441 53.3226 38.8692C53.3683 38.8105 57.8086 33.02 63.3961 33.02C67.4303 33.02 72.6356 34.141 75.1422 37.2915C75.4489 37.6779 75.9187 37.9034 76.4125 37.9034H76.4154L79.631 37.8984L76.7141 41.7906C76.5031 42.0719 76.3892 42.4127 76.3892 42.7651C76.3892 46.0199 75.5967 48.5018 75.1827 49.575L71.653 50.7526C68.5576 49.1204 64.3413 46.3172 64.2971 46.2862C63.5467 45.7874 62.5417 45.9889 62.0443 46.7358C61.5454 47.4826 61.747 48.4897 62.4938 48.9886C62.6954 49.122 84.9629 63.4254 84.9629 63.4254L87.1055 66.6396C86.4935 66.897 85.6278 67.1276 84.5105 67.1276L84.51 67.1274ZM95.8791 68.7516C93.1926 68.7516 91.0066 66.5656 91.0066 63.8791C91.0066 61.1927 93.1926 59.0066 95.8791 59.0066C98.5655 59.0066 100.752 61.1927 100.752 63.8791C100.752 66.5656 98.5655 68.7516 95.8791 68.7516Z" fill="#F5E9FF"/>
</svg>
