<svg width="83" height="91" viewBox="0 0 83 91" fill="none" xmlns="http://www.w3.org/2000/svg">
<path d="M41.5807 22.9807H38.7557V20.1557C39.5049 20.1557 40.2237 19.8581 40.7534 19.3284C41.2831 18.7987 41.5807 18.0799 41.5807 17.3307V3.20574C41.5807 2.45661 41.2831 1.73774 40.7534 1.20806C40.2237 0.678379 39.5049 0.380737 38.7557 0.380737H10.5057C9.7566 0.380737 9.03773 0.678379 8.50805 1.20806C7.97837 1.73774 7.68073 2.45661 7.68073 3.20574V17.3307C7.68073 18.0799 7.97837 18.7987 8.50805 19.3284C9.03773 19.8581 9.7566 20.1557 10.5057 20.1557V22.9807H7.68073C5.80848 22.9833 4.01323 23.728 2.68903 25.0515C1.36545 26.3758 0.620808 28.171 0.618225 30.0432V83.7182C0.620747 85.5905 1.36546 87.3857 2.68903 88.7099C4.01325 90.0335 5.80848 90.7782 7.68073 90.7807H41.5807C43.453 90.7782 45.2482 90.0335 46.5724 88.7099C47.896 87.3857 48.6406 85.5905 48.6432 83.7182V30.0432C48.6407 28.171 47.896 26.3757 46.5724 25.0515C45.2482 23.728 43.453 22.9833 41.5807 22.9807ZM3.44323 38.5182H45.8182V69.5932H3.44323V38.5182ZM10.5057 3.20574H38.7557V17.3307H10.5057V3.20574ZM13.3307 20.1557H35.9307V22.9807H13.3307V20.1557ZM7.68073 25.8057H41.5807C42.7044 25.8057 43.7828 26.2522 44.5772 27.0467C45.3716 27.8413 45.8181 28.9196 45.8181 30.0432V35.6932H3.44314V30.0432C3.44314 28.9195 3.88959 27.8411 4.68413 27.0467C5.47866 26.2523 6.55702 25.8057 7.68056 25.8057H7.68073ZM41.5807 87.9557H7.68073C6.55704 87.9557 5.47868 87.5093 4.68429 86.7148C3.8899 85.9202 3.44331 84.8419 3.44331 83.7183V72.4183H45.8183V83.7183C45.8183 84.842 45.3719 85.9204 44.5773 86.7148C43.7828 87.5091 42.7044 87.9557 41.5809 87.9557H41.5807Z" fill="#F5E9FF"/>
<path d="M24.6307 54.0557C22.7585 54.0582 20.9632 54.803 19.639 56.1265C18.3155 57.4507 17.5708 59.246 17.5682 61.1182C17.5682 64.6564 20.2084 66.7682 24.6307 66.7682C29.0531 66.7682 31.6932 64.6564 31.6932 61.1182C31.6907 59.246 30.946 57.4507 29.6224 56.1265C28.2982 54.8029 26.503 54.0583 24.6307 54.0557ZM24.6307 63.9432C20.3932 63.9432 20.3932 61.8175 20.3932 61.1182C20.3932 59.6042 21.201 58.2056 22.512 57.4483C23.823 56.6916 25.4385 56.6916 26.7495 57.4483C28.0605 58.2056 28.8682 59.6042 28.8682 61.1182C28.8682 61.8245 28.8682 63.9432 24.6307 63.9432Z" fill="#F5E9FF"/>
<path d="M24.6307 49.8182C25.7544 49.8182 26.8328 49.3718 27.6272 48.5772C28.4216 47.7827 28.8682 46.7043 28.8682 45.5808C28.8682 44.4573 28.4217 43.3788 27.6272 42.5844C26.8326 41.79 25.7543 41.3434 24.6307 41.3434C23.5072 41.3434 22.4287 41.7898 21.6343 42.5844C20.8399 43.3789 20.3933 44.4573 20.3933 45.5808C20.3933 46.7043 20.8398 47.7828 21.6343 48.5772C22.4288 49.3716 23.5072 49.8182 24.6307 49.8182ZM24.6307 44.1682C25.202 44.1682 25.7172 44.5125 25.9354 45.0403C26.1542 45.5681 26.0338 46.1753 25.6296 46.5796C25.2254 46.9838 24.6181 47.1042 24.0903 46.8854C23.5625 46.6672 23.2182 46.152 23.2182 45.5807C23.2182 44.8007 23.8507 44.1682 24.6307 44.1682Z" fill="#F5E9FF"/>
<path d="M18.9807 51.2307C18.9807 50.107 18.5343 49.0287 17.7397 48.2343C16.9452 47.4399 15.8669 46.9933 14.7433 46.9933C13.6198 46.9933 12.5413 47.4397 11.7469 48.2343C10.9525 49.0288 10.5059 50.1072 10.5059 51.2307C10.5059 52.3543 10.9523 53.4328 11.7469 54.2271C12.5414 55.0215 13.6198 55.4681 14.7433 55.4681C15.8669 55.4681 16.9454 55.0217 17.7397 54.2271C18.5341 53.4326 18.9807 52.3543 18.9807 51.2307ZM14.7432 52.6432C14.1719 52.6432 13.6567 52.2989 13.4386 51.7711C13.2197 51.2433 13.3402 50.6361 13.7444 50.2319C14.1486 49.8277 14.7558 49.7072 15.2836 49.926C15.8114 50.1442 16.1557 50.6594 16.1557 51.2307C16.1557 51.6053 16.0069 51.9647 15.7421 52.2295C15.4772 52.4944 15.1178 52.6432 14.7432 52.6432Z" fill="#F5E9FF"/>
<path d="M34.5182 46.9932C33.3945 46.9932 32.3162 47.4397 31.5218 48.2342C30.7274 49.0287 30.2808 50.1071 30.2808 51.2306C30.2808 52.3542 30.7272 53.4327 31.5218 54.2271C32.3163 55.0215 33.3947 55.4681 34.5182 55.4681C35.6418 55.4681 36.7203 55.0216 37.5147 54.2271C38.309 53.4325 38.7556 52.3542 38.7556 51.2306C38.7556 50.1071 38.3092 49.0286 37.5147 48.2342C36.7201 47.4398 35.6418 46.9932 34.5182 46.9932ZM34.5182 52.6432C33.9469 52.6432 33.4317 52.2989 33.2135 51.7711C32.9947 51.2433 33.1152 50.6361 33.5194 50.2319C33.9236 49.8277 34.5308 49.7072 35.0586 49.9261C35.5864 50.1442 35.9307 50.6594 35.9307 51.2307C35.9307 51.6053 35.7819 51.9647 35.5171 52.2296C35.2522 52.4944 34.8928 52.6432 34.5182 52.6432Z" fill="#F5E9FF"/>
<path d="M79.7182 17.3307H74.0682V8.85574H78.3057C79.0548 8.85574 79.7737 8.55809 80.3034 8.02842C80.8331 7.49874 81.1307 6.77986 81.1307 6.03074V3.20574C81.1307 2.45661 80.8331 1.73774 80.3034 1.20806C79.7737 0.678379 79.0548 0.380737 78.3057 0.380737H58.5307C57.7816 0.380737 57.0627 0.678379 56.533 1.20806C56.0034 1.73774 55.7057 2.45661 55.7057 3.20574V6.03074C55.7057 6.77986 56.0034 7.49874 56.533 8.02842C57.0627 8.55809 57.7816 8.85574 58.5307 8.85574H62.7682V17.3307H57.1182C56.3691 17.3307 55.6502 17.6284 55.1205 18.1581C54.5909 18.6877 54.2932 19.4066 54.2932 20.1557V22.9807C54.2932 23.7299 54.5909 24.4487 55.1205 24.9784C55.6502 25.5081 56.3691 25.8057 57.1182 25.8057V63.9432C57.1182 64.3178 57.267 64.6772 57.5319 64.9421C57.7967 65.2069 58.1562 65.3557 58.5307 65.3557H61.3557V72.4182C61.3557 72.7928 61.5045 73.1522 61.7694 73.4171C62.0342 73.6819 62.3937 73.8307 62.7682 73.8307H67.0057V89.3682C67.0057 90.1483 67.6382 90.7807 68.4182 90.7807C69.1982 90.7807 69.8307 90.1483 69.8307 89.3682V73.8307H74.0682C74.4428 73.8307 74.8022 73.6819 75.0671 73.4171C75.3319 73.1522 75.4807 72.7928 75.4807 72.4182V65.3557H78.3057C78.6803 65.3557 79.0397 65.2069 79.3046 64.9421C79.5694 64.6772 79.7182 64.3178 79.7182 63.9432V25.8057C80.4673 25.8057 81.1862 25.5081 81.7159 24.9784C82.2456 24.4487 82.5432 23.7299 82.5432 22.9807V20.1557C82.5432 19.4066 82.2456 18.6877 81.7159 18.1581C81.1862 17.6284 80.4673 17.3307 79.7182 17.3307ZM58.5307 3.20574H78.3057V6.03074H58.5307V3.20574ZM65.5932 8.85574H71.2432V17.3307H65.5932V8.85574ZM72.6557 71.0057H64.1807V65.3557H72.6557V71.0057ZM76.8932 32.9409L71.503 32.9169C70.7229 32.915 70.0892 33.5462 70.0873 34.3263C70.0848 35.1063 70.716 35.74 71.496 35.7419L76.8932 35.7659V40.0034L71.4721 39.9794H71.4652C70.6852 39.9794 70.0527 40.6119 70.0527 41.3919C70.0527 42.1726 70.6852 42.8044 71.4652 42.8044L76.8932 42.8284V47.0659L71.4413 47.0419H71.4337C70.6537 47.0419 70.0212 47.6744 70.0212 48.4544C70.0212 49.2351 70.6537 49.8669 71.4337 49.8669L76.9002 49.8909V54.1284L71.4153 54.1044C70.6353 54.1025 70.0016 54.7337 69.9997 55.5138C69.9978 56.2938 70.6284 56.9275 71.4084 56.9294L76.8933 56.9534V62.5303H59.9433V25.8053H76.8933L76.8932 32.9409ZM79.7182 22.9803H57.1182V20.1553H79.7182V22.9803Z" fill="#F5E9FF"/>
</svg>
