<svg width="91" height="71" viewBox="0 0 91 71" fill="none" xmlns="http://www.w3.org/2000/svg">
<path d="M87.9558 59.5133H87.645L79.4386 26.682C79.2809 26.0533 78.7159 25.6125 78.0683 25.6125H76.5795C76.3166 22.8537 75.2414 20.2344 73.4896 18.0872C71.7378 15.9394 69.3884 14.3592 66.7387 13.547C66.5003 10.4206 64.7909 7.59305 62.1329 5.92953C59.4757 4.26536 56.1853 3.96333 53.2689 5.11419C52.3628 3.14298 50.734 1.59553 48.7192 0.790968C46.7046 -0.0136562 44.4572 -0.0136562 42.4424 0.790968C40.4277 1.59559 38.7989 3.14298 37.8927 5.11419C34.9757 3.96338 31.6859 4.26606 29.028 5.92953C26.3701 7.59305 24.6605 10.4205 24.4216 13.547C21.7719 14.3598 19.423 15.94 17.672 18.0872C15.9201 20.235 14.845 22.8537 14.5821 25.6125H13.0933C12.4457 25.6125 11.8807 26.0533 11.723 26.682L3.51662 59.5133H3.20574C2.45661 59.5133 1.73774 59.811 1.20806 60.3406C0.678379 60.8703 0.380737 61.5892 0.380737 62.3383V67.9883C0.380737 68.7375 0.678379 69.4563 1.20806 69.986C1.73774 70.5157 2.45661 70.8133 3.20574 70.8133H87.9557C88.7049 70.8133 89.4237 70.5157 89.9534 69.986C90.4831 69.4563 90.7807 68.7375 90.7807 67.9883V62.3383C90.7807 61.5892 90.4831 60.8703 89.9534 60.3406C89.4237 59.811 88.705 59.5133 87.9558 59.5133ZM26.1319 16.0083C26.7966 15.8589 27.26 15.2567 27.2342 14.5763C27.2342 14.5605 27.2203 14.3222 27.2184 14.3076C27.2153 12.6259 27.8137 10.9984 28.9058 9.71887C29.9973 8.43942 31.5108 7.59254 33.1724 7.33086C34.834 7.0698 36.534 7.41094 37.966 8.29312C38.3544 8.53275 38.8337 8.56994 39.2543 8.39338C39.6749 8.21681 39.9839 7.84793 40.0847 7.40337C40.4631 5.72661 41.5862 4.31476 43.1337 3.56751C44.6817 2.8209 46.4859 2.8209 48.0338 3.56751C49.5812 4.31474 50.7043 5.72661 51.0827 7.40337C51.1836 7.84793 51.4926 8.21683 51.9132 8.39338C52.3338 8.56995 52.813 8.53274 53.2015 8.29312C54.6423 7.40463 56.3556 7.06475 58.0274 7.3359C59.6985 7.60705 61.2162 8.47093 62.3027 9.76992C63.3891 11.0683 63.9718 12.7147 63.9434 14.4078C63.9434 14.4216 63.9333 14.566 63.9333 14.5818C63.9075 15.2622 64.3709 15.8644 65.0356 16.0138C67.3006 16.517 69.3538 17.7101 70.9119 19.4297C72.47 21.1492 73.4563 23.3096 73.735 25.6132H17.4271C17.7051 23.3078 18.6914 21.1455 20.2508 19.4247C21.8102 17.7045 23.8653 16.5107 26.1322 16.0082L26.1319 16.0083ZM14.1962 28.4383H76.9661L84.7348 59.5133H6.42746L14.1962 28.4383ZM87.9562 67.9883H3.20616V62.3383H87.9562V67.9883Z" fill="#F5E9FF"/>
<path d="M32.1128 12.7281C31.3171 13.5226 30.8706 14.601 30.8706 15.7252C30.8706 16.8494 31.3171 17.9279 32.1128 18.7223C32.6646 19.274 33.5588 19.2734 34.1105 18.7216C34.6623 18.1699 34.6617 17.2751 34.1099 16.7239C33.8444 16.4591 33.6956 16.099 33.6956 15.7245C33.6956 15.3493 33.8444 14.9898 34.1099 14.725C34.6686 14.1928 35.547 14.1928 36.1056 14.725C36.6599 15.2604 37.5408 15.2528 38.0857 14.708C38.6306 14.1632 38.6381 13.2822 38.1027 12.7279C37.2956 11.958 36.2229 11.5285 35.1081 11.5285C33.9926 11.5285 32.9199 11.958 32.1128 12.7279L32.1128 12.7281Z" fill="#F5E9FF"/>
<path d="M56.8809 10.0758C55.7572 10.0758 54.6788 10.5223 53.8844 11.3168C53.09 12.1114 52.6434 13.1897 52.6434 14.3133C52.6434 15.0933 53.2759 15.7258 54.0559 15.7258C54.836 15.7258 55.4684 15.0933 55.4684 14.3133C55.4684 13.5332 56.1009 12.9008 56.8809 12.9008C57.661 12.9008 58.2934 13.5332 58.2934 14.3133C58.2934 15.0933 58.9259 15.7258 59.7059 15.7258C60.486 15.7258 61.1184 15.0933 61.1184 14.3133C61.1184 13.1896 60.672 12.1112 59.8775 11.3168C59.0829 10.5224 58.0046 10.0758 56.881 10.0758H56.8809Z" fill="#F5E9FF"/>
<path d="M54.0559 34.0883C53.2758 34.0883 52.6433 34.7208 52.6433 35.5008V42.5633H49.8183V38.3258C49.8183 37.5458 49.1859 36.9133 48.4058 36.9133C47.6258 36.9133 46.9933 37.5458 46.9933 38.3258V42.5633H44.1684V35.5008C44.1684 34.7208 43.5359 34.0883 42.7558 34.0883C41.9758 34.0883 41.3433 34.7208 41.3433 35.5008V42.5633H38.5183V38.3258C38.5183 37.5458 37.8859 36.9133 37.1058 36.9133C36.3258 36.9133 35.6933 37.5458 35.6933 38.3258V42.5633H32.7555C32.4163 40.2119 31.2415 38.0616 29.4469 36.5054C27.6516 34.9491 25.3563 34.0909 22.9808 34.0883H20.1558C19.3758 34.0883 18.7433 34.7208 18.7433 35.5008C18.749 38.9765 20.579 42.1945 23.5641 43.9758C20.579 45.7572 18.749 48.9751 18.7433 52.4508C18.7433 52.8254 18.8922 53.1848 19.157 53.4497C19.4219 53.7145 19.7813 53.8633 20.1558 53.8633H22.9808C25.3563 53.8608 27.6516 53.0026 29.4469 51.4463C31.2415 49.89 32.4163 47.7397 32.7555 45.3883H35.6933V49.6258C35.6933 50.4058 36.3258 51.0383 37.1058 51.0383C37.8859 51.0383 38.5183 50.4058 38.5183 49.6258V45.3883H41.3433V52.4508C41.3433 53.2308 41.9758 53.8633 42.7558 53.8633C43.5359 53.8633 44.1684 53.2308 44.1684 52.4508V45.3883H46.9933V49.6258C46.9933 50.4058 47.6258 51.0383 48.4058 51.0383C49.1859 51.0383 49.8183 50.4058 49.8183 49.6258V45.3883H52.6433V52.4508C52.6433 52.8254 52.7922 53.1848 53.057 53.4497C53.3219 53.7145 53.6813 53.8633 54.0559 53.8633C54.8056 53.8633 72.4184 53.7504 72.4184 43.9758C72.4184 34.2012 54.8049 34.0883 54.0559 34.0883ZM21.7088 36.9133H22.98C24.6076 36.9152 26.1847 37.4783 27.4458 38.5074C28.7063 39.5365 29.5734 40.9692 29.9013 42.5633H28.63C27.0025 42.5614 25.4254 41.9983 24.1643 40.9692C22.9037 39.9401 22.0367 38.5074 21.7088 36.9133ZM22.98 51.0383H21.7088C22.0367 49.4442 22.9037 48.0115 24.1643 46.9824C25.4254 45.9533 27.0025 45.3902 28.63 45.3883H29.9013C29.5734 46.9824 28.7063 48.4151 27.4452 49.4442C26.1846 50.4733 24.6076 51.0364 22.98 51.0383ZM55.4675 50.979V36.9725C59.2982 37.2084 69.5925 38.3667 69.5925 43.9758C69.5925 49.5848 59.2982 50.7432 55.4675 50.979Z" fill="#F5E9FF"/>
</svg>
