<svg width="91" height="91" viewBox="0 0 91 91" fill="none" xmlns="http://www.w3.org/2000/svg">
<path d="M90.6927 38.0226L82.2177 15.4226C82.0102 14.8714 81.4831 14.5057 80.8941 14.5057H35.6941V8.85571C36.4754 8.85571 37.1066 8.2226 37.1066 7.44321V1.79321C37.1066 1.01381 36.4754 0.380707 35.6941 0.380707H18.7441C17.9628 0.380707 17.3316 1.01381 17.3316 1.79321V7.44321C17.3316 8.2226 17.9628 8.85571 18.7441 8.85571V14.5057H10.2691C9.68013 14.5057 9.15296 14.8714 8.9455 15.4226L0.470504 38.0226C0.307816 38.4564 0.36898 38.942 0.631302 39.3235C0.897401 39.705 1.33061 39.9307 1.79409 39.9307H6.03159V79.4807H4.61909C3.83781 79.4807 3.20659 80.1119 3.20659 80.8932V89.3682C3.20659 90.1495 3.83781 90.7807 4.61909 90.7807H86.5441C87.3254 90.7807 87.9566 90.1495 87.9566 89.3682V80.8932C87.9566 80.1119 87.3254 79.4807 86.5441 79.4807H85.1316V39.9307H89.3691C89.8326 39.9307 90.2658 39.7031 90.53 39.3235C90.7942 38.942 90.8547 38.4558 90.6927 38.0226ZM20.1565 3.20566H34.2815V6.03066H20.1565V3.20566ZM32.869 8.85566V22.9807H21.569V8.85566H32.869ZM85.1315 87.9557H6.03146V82.3057H85.1315V87.9557ZM35.694 63.9432V50.4027L38.9325 53.6413C39.198 53.9074 39.5568 54.0556 39.9314 54.0556H51.2314C51.6072 54.0556 51.9648 53.9074 52.2302 53.6419L55.4688 50.4027V63.9431C55.4688 66.2795 53.5677 68.1806 51.2313 68.1806H39.9313C37.5949 68.1806 35.6938 66.2806 35.6938 63.9431L35.694 63.9432ZM51.2315 71.0057C55.1259 71.0057 58.294 74.1737 58.294 78.0682V79.4807H32.869V78.0682C32.869 74.1737 36.037 71.0057 39.9315 71.0057H51.2315ZM82.3065 79.4807H61.119V78.0682C61.119 74.257 58.9479 70.9488 55.7812 69.2994C57.3053 68.0029 58.294 66.096 58.294 63.9432V46.9932C58.294 46.4225 57.9509 45.9067 57.4225 45.6879C56.8941 45.4703 56.2881 45.5889 55.8826 45.9943L50.6469 51.2307H40.5166L35.2801 45.9943C34.8759 45.5901 34.27 45.4716 33.7403 45.6879C33.2118 45.9067 32.8688 46.4225 32.8688 46.9932V63.9432C32.8688 66.096 33.8576 68.0028 35.3816 69.2994C32.2149 70.949 30.0438 74.2589 30.0438 78.0682V79.4807H8.8563V39.9307H82.3063L82.3065 79.4807ZM3.83442 37.1057L11.2501 17.3307H18.7446V24.3932C18.7446 25.1726 19.3758 25.8057 20.1571 25.8057H34.2821C35.0634 25.8057 35.6946 25.1726 35.6946 24.3932V17.3307H79.9164L87.3321 37.1057H3.83442Z" fill="#F5E9FF"/>
</svg>
