<svg width="16" height="15" viewBox="0 0 16 15" fill="none" xmlns="http://www.w3.org/2000/svg">
<path d="M5.26251 0.749991C6.14751 0.622491 7.08501 1.58999 7.35501 2.92499C7.62501 4.25249 7.13751 5.43749 6.25251 5.57249C5.37501 5.70749 4.43001 4.73999 4.15251 3.40499C3.87501 2.07749 4.37751 0.892491 5.26251 0.749991ZM10.625 0.749991C11.5175 0.892491 12.0125 2.07749 11.75 3.40499C11.465 4.73999 10.5275 5.70749 9.6425 5.57249C8.75 5.43749 8.26251 4.25249 8.54001 2.92499C8.81001 1.58999 9.74751 0.622491 10.625 0.749991ZM1.25001 4.19999C2.10501 3.83249 3.26751 4.49999 3.87501 5.66249C4.44501 6.84749 4.25001 8.09249 3.40251 8.45999C2.55501 8.82749 1.40001 8.16749 0.807506 6.98999C0.215006 5.81249 0.425006 4.55999 1.25001 4.19999ZM14.75 4.19999C15.575 4.55999 15.785 5.81249 15.1925 6.98999C14.6 8.16749 13.445 8.82749 12.5975 8.45999C11.75 8.09249 11.555 6.84749 12.125 5.66249C12.7325 4.49999 13.895 3.83249 14.75 4.19999ZM13.4975 12.285C13.5275 12.99 12.9875 13.77 12.3425 14.0625C11 14.6775 9.41001 13.4025 7.91751 13.4025C6.42501 13.4025 4.82001 14.73 3.50001 14.0625C2.75001 13.695 2.23251 12.72 2.33001 11.91C2.46501 10.7925 3.80751 10.1925 4.60251 9.37499C5.66001 8.31749 6.41001 6.32999 7.91751 6.32999C9.41751 6.32999 10.2125 8.28749 11.225 9.37499C12.0575 10.29 13.445 11.0625 13.4975 12.285Z" fill="#F5E9FF"/>
</svg>
